<svg width="262" height="192" viewBox="0 0 262 192" fill="none" xmlns="http://www.w3.org/2000/svg">
<rect x="0.5" y="0.5" width="261" height="191" rx="11.5" fill="#313539"/>
<rect x="0.5" y="0.5" width="261" height="191" rx="11.5" stroke="#42474E"/>
<circle cx="10.4578" cy="10.4572" r="2.61429" fill="#42474E"/>
<circle cx="18.3006" cy="10.4572" r="2.61429" fill="#42474E"/>
<circle cx="26.1433" cy="10.4572" r="2.61429" fill="#42474E"/>
<circle cx="26.1433" cy="10.4572" r="2.61429" fill="#42474E"/>
<circle cx="250.972" cy="10.4572" r="2.61429" fill="#42474E"/>
<rect x="70.5862" y="7.8429" width="120.257" height="5.22857" rx="2.61429" fill="#42474E"/>
<rect x="24" y="44" width="214" height="103" rx="12" fill="#373C41"/>
<rect x="61" y="59" width="139" height="10" rx="5" fill="#60666F"/>
<rect x="132" y="117" width="45" height="14" rx="7" fill="#42474E"/>
<rect x="84" y="117" width="45" height="14" rx="7" fill="#60666F"/>
<rect x="70" y="72" width="119" height="11" rx="5.5" fill="#60666F"/>
<rect x="70" y="88" width="119" height="4" rx="2" fill="#42474E"/>
<rect x="81" y="94" width="98" height="4" rx="2" fill="#42474E"/>
</svg>
