<svg width="262" height="192" viewBox="0 0 262 192" fill="none" xmlns="http://www.w3.org/2000/svg">
<rect x="0.5" y="0.5" width="261" height="191" rx="11.5" fill="#313539"/>
<rect x="0.5" y="0.5" width="261" height="191" rx="11.5" stroke="#42474E"/>
<circle cx="10.4578" cy="10.4572" r="2.61429" fill="#42474E"/>
<circle cx="18.3006" cy="10.4572" r="2.61429" fill="#42474E"/>
<circle cx="26.1433" cy="10.4572" r="2.61429" fill="#42474E"/>
<circle cx="26.1433" cy="10.4572" r="2.61429" fill="#42474E"/>
<circle cx="250.972" cy="10.4572" r="2.61429" fill="#42474E"/>
<rect x="70.5862" y="7.8429" width="120.257" height="5.22857" rx="2.61429" fill="#42474E"/>
<rect x="23.5291" y="36.6" width="107.186" height="10.4571" rx="5.22857" fill="#60666F"/>
<rect x="23.5291" y="105.879" width="37.9071" height="10.4571" rx="5.22857" fill="#60666F"/>
<rect x="64.4363" y="105.879" width="37.9071" height="10.4571" rx="5.22857" fill="#42474E"/>
<rect x="23.5291" y="49.6714" width="91.5" height="10.4571" rx="5.22857" fill="#60666F"/>
<rect x="23.5293" y="149.172" width="33.9857" height="10.4571" rx="5.22857" fill="#60666F"/>
<rect x="81.043" y="149.172" width="32.6786" height="10.4571" rx="5.22857" fill="#60666F"/>
<rect x="139.865" y="149.172" width="33.9857" height="10.4571" rx="5.22857" fill="#60666F"/>
<rect x="194.766" y="149.172" width="33.9857" height="10.4571" rx="5.22857" fill="#60666F"/>
<rect x="188.229" y="35.2928" width="54.9" height="75.8143" rx="5.22857" fill="#42474E"/>
<rect opacity="0.5" x="150.322" y="49.6714" width="53.5929" height="75.8143" rx="5.22857" fill="#272A2E"/>
<rect x="23.5291" y="65.3572" width="91.5" height="3.92143" rx="1.96071" fill="#42474E"/>
<rect x="23.5293" y="164.857" width="48.3643" height="3.92143" rx="1.96071" fill="#42474E"/>
<rect x="81.043" y="164.857" width="48.3643" height="3.92143" rx="1.96071" fill="#42474E"/>
<rect x="139.865" y="164.857" width="48.3643" height="3.92143" rx="1.96071" fill="#42474E"/>
<rect x="194.766" y="164.857" width="48.3643" height="3.92143" rx="1.96071" fill="#42474E"/>
<rect x="23.5291" y="71.8928" width="75.8143" height="3.92143" rx="1.96071" fill="#42474E"/>
<rect x="23.5293" y="171.393" width="39.2143" height="3.92143" rx="1.96071" fill="#42474E"/>
<rect x="81.043" y="171.393" width="39.2143" height="3.92143" rx="1.96071" fill="#42474E"/>
<rect x="139.865" y="171.393" width="40.5214" height="3.92143" rx="1.96071" fill="#42474E"/>
<rect x="194.766" y="171.393" width="39.2143" height="3.92143" rx="1.96071" fill="#42474E"/>
</svg>
