<svg width="262" height="192" viewBox="0 0 262 192" fill="none" xmlns="http://www.w3.org/2000/svg">
<rect x="0.5" y="0.5" width="261" height="191" rx="11.5" fill="#313539"/>
<rect x="0.5" y="0.5" width="261" height="191" rx="11.5" stroke="#42474E"/>
<circle cx="10.4577" cy="10.4572" r="2.61429" fill="#42474E"/>
<circle cx="18.3006" cy="10.4572" r="2.61429" fill="#42474E"/>
<circle cx="26.1435" cy="10.4572" r="2.61429" fill="#42474E"/>
<circle cx="250.972" cy="10.4572" r="2.61429" fill="#42474E"/>
<rect x="70.5863" y="7.8429" width="120.257" height="5.22857" rx="2.61429" fill="#42474E"/>
<rect x="24" y="35" width="107" height="11" rx="5.5" fill="#60666F"/>
<rect x="24" y="49" width="91" height="11" rx="5.5" fill="#60666F"/>
<rect x="25" y="79" width="8" height="8" rx="4" fill="#60666F"/>
<rect x="37" y="81" width="52" height="4" rx="2" fill="#60666F"/>
<rect x="203" y="35" width="42" height="3" rx="1.5" fill="#42474E"/>
<rect x="37" y="90" width="94" height="2" rx="1" fill="#42474E"/>
<rect x="203" y="40" width="39" height="3" rx="1.5" fill="#42474E"/>
<rect x="37" y="94" width="77" height="2" rx="1" fill="#42474E"/>
<rect x="37" y="98" width="59" height="2" rx="1" fill="#42474E"/>
<rect x="25" y="112" width="8" height="8" rx="4" fill="#60666F"/>
<rect x="37" y="114" width="52" height="4" rx="2" fill="#60666F"/>
<rect x="37" y="123" width="94" height="2" rx="1" fill="#42474E"/>
<rect x="37" y="127" width="77" height="2" rx="1" fill="#42474E"/>
<rect x="37" y="131" width="82" height="2" rx="1" fill="#42474E"/>
<rect x="25" y="143" width="8" height="8" rx="4" fill="#60666F"/>
<rect x="37" y="145" width="52" height="4" rx="2" fill="#60666F"/>
<rect x="37" y="154" width="94" height="2" rx="1" fill="#42474E"/>
<rect x="37" y="158" width="77" height="2" rx="1" fill="#42474E"/>
<rect x="37" y="162" width="59" height="2" rx="1" fill="#42474E"/>
<rect x="28.5" y="88" width="1" height="23" rx="0.5" fill="#42474E"/>
<rect x="28.5" y="121" width="1" height="21" rx="0.5" fill="#42474E"/>
<rect x="203" y="49" width="42" height="10" rx="5" fill="#60666F"/>
<rect x="161" y="74" width="84" height="90" rx="5.22857" fill="#373C41"/>
</svg>
