<svg width="24" height="24" viewBox="0 0 24 24" fill="none" xmlns="http://www.w3.org/2000/svg">
<g clip-path="url(#clip0_244_19641)">
<path d="M18.5766 13.4512C17.9166 10.128 21.0702 8.17924 21.0702 8.17924C21.0702 8.17924 19.8406 6.40324 17.7766 5.94724C15.7126 5.48804 14.6798 6.05844 13.6494 6.49124C12.6174 6.92004 12.1022 6.92004 12.1022 6.92004C10.6134 6.92004 9.52457 5.34404 6.68537 6.06404C4.73257 6.55684 2.67337 8.81284 2.30137 11.5072C1.92857 14.2008 2.73177 17.6384 4.27897 20.3024C5.82777 22.968 7.40377 23.9712 8.52137 23.9992C9.63897 24.0272 10.7566 23.1976 12.1038 22.9944C13.451 22.7976 14.2782 23.4848 15.5998 23.8568C16.9182 24.2288 17.379 23.8816 18.8934 22.5928C20.4134 21.304 21.7918 17.604 21.7918 17.604C21.7918 17.604 19.2374 16.7784 18.5766 13.4512Z" fill="black"/>
<path d="M15.6546 3.7968C17.117 2.3048 16.6202 0 16.6202 0C16.6202 0 14.5674 0.3576 13.1922 1.7904C11.8154 3.2248 12.0434 5.4856 12.0434 5.4856C12.0434 5.4856 14.1906 5.2872 15.6546 3.7968Z" fill="black"/>
</g>
<defs>
<clipPath id="clip0_244_19641">
<rect width="24" height="24" fill="white"/>
</clipPath>
</defs>
</svg>
