<svg width="16" height="16" viewBox="0 0 16 16" fill="none" xmlns="http://www.w3.org/2000/svg">
<g clip-path="url(#clip0_7126_27179)">
<path d="M12.384 8.96798C11.944 6.75252 14.0464 5.45331 14.0464 5.45331C14.0464 5.45331 13.2267 4.26931 11.8507 3.96531C10.4747 3.65918 9.78613 4.03945 9.0992 4.32798C8.4112 4.61385 8.06773 4.61385 8.06773 4.61385C7.0752 4.61385 6.34933 3.56318 4.45653 4.04318C3.15466 4.37171 1.78186 5.87571 1.53386 7.67198C1.28533 9.46771 1.8208 11.7594 2.85226 13.5354C3.8848 15.3125 4.93546 15.9813 5.68053 16C6.4256 16.0186 7.17066 15.4656 8.0688 15.3301C8.96693 15.1989 9.5184 15.657 10.3995 15.905C11.2784 16.153 11.5856 15.9216 12.5952 15.0624C13.6085 14.2032 14.5275 11.7365 14.5275 11.7365C14.5275 11.7365 12.8245 11.1861 12.384 8.96798Z" fill="#E6E0E9"/>
<path d="M10.4363 2.53169C11.4112 1.53702 11.08 0.000488281 11.08 0.000488281C11.08 0.000488281 9.71149 0.238888 8.79468 1.19409C7.87682 2.15035 8.02882 3.65755 8.02882 3.65755C8.02882 3.65755 9.46029 3.52529 10.4363 2.53169Z" fill="#E6E0E9"/>
</g>
<defs>
<clipPath id="clip0_7126_27179">
<rect width="16" height="16" fill="white"/>
</clipPath>
</defs>
</svg>
