<svg width="24" height="24" viewBox="0 0 24 24" fill="none" xmlns="http://www.w3.org/2000/svg">
<g clip-path="url(#clip0_244_19643)">
<path d="M1.98633 6.83832C2.71289 5.32425 3.73945 4.04457 5.0332 2.9805C6.78633 1.53207 8.79727 0.660191 11.052 0.393003C13.7004 0.0789407 16.1895 0.580503 18.491 1.95863C19.0629 2.30082 19.5973 2.68988 20.1082 3.11175C20.2348 3.21488 20.2207 3.27582 20.1129 3.37894C19.0676 4.41957 18.0223 5.46019 16.9863 6.51019C16.8645 6.63207 16.7988 6.62269 16.6676 6.52425C13.6301 4.18519 9.20039 4.818 6.93633 7.91175C6.53789 8.4555 6.21445 9.04144 5.98945 9.67894C5.9707 9.73519 5.9332 9.78675 5.90508 9.843C5.30039 9.38363 4.69102 8.92425 4.09102 8.46019C3.38789 7.92113 2.68477 7.38207 1.98633 6.83832Z" fill="#E94335"/>
<path d="M5.90586 14.2402C6.10742 14.6855 6.27617 15.1496 6.5293 15.5668C7.59336 17.3105 9.11211 18.4309 11.1137 18.8293C12.9184 19.1902 14.6527 18.9465 16.2699 18.0418C16.3262 18.0137 16.3824 17.9855 16.434 17.9574C16.4621 17.9855 16.4855 18.0184 16.5137 18.0418C17.723 18.9793 18.9371 19.9168 20.1465 20.8543C19.5652 21.4309 18.9043 21.8949 18.2012 22.298C16.1621 23.4605 13.9543 23.9293 11.6293 23.7512C8.73242 23.5262 6.23398 22.3824 4.17148 20.3199C3.2668 19.4152 2.52148 18.3934 1.98242 17.2262C2.48398 16.8418 2.98555 16.4621 3.48711 16.0777C4.29336 15.4637 5.09961 14.8543 5.90586 14.2402Z" fill="#34A853"/>
<path d="M20.1507 20.8547C18.9413 19.9172 17.7273 18.9797 16.5179 18.0422C16.4898 18.0188 16.4616 17.9859 16.4382 17.9578C16.8554 17.6344 17.282 17.3203 17.6241 16.9078C18.196 16.2234 18.5757 15.45 18.7726 14.5828C18.796 14.475 18.7773 14.4375 18.6694 14.4422C18.6132 14.4469 18.5616 14.4422 18.5054 14.4422C16.5929 14.4422 14.6757 14.4375 12.7632 14.4469C12.5523 14.4469 12.5054 14.3906 12.5101 14.1891C12.5195 12.8297 12.5195 11.4703 12.5101 10.1109C12.5101 9.9375 12.557 9.89062 12.7304 9.89062C16.2366 9.89531 19.7429 9.89531 23.2538 9.89062C23.4038 9.89062 23.4648 9.92812 23.5023 10.0875C23.7882 11.3766 23.7695 12.6703 23.596 13.9734C23.4554 15.0141 23.2023 16.0219 22.8132 16.9969C22.2366 18.4359 21.3882 19.6922 20.2726 20.7703C20.2304 20.8031 20.1882 20.8266 20.1507 20.8547Z" fill="#4285F3"/>
<path d="M5.90536 14.2406C5.09911 14.8547 4.29286 15.4641 3.48661 16.0781C2.98505 16.4578 2.48348 16.8422 1.98192 17.2266C1.59286 16.5047 1.33973 15.7406 1.13348 14.9531C0.739734 13.4297 0.678797 11.8828 0.894422 10.3312C1.06317 9.1125 1.41473 7.94062 1.98192 6.84375C2.68505 7.38281 3.38348 7.92656 4.08661 8.46563C4.6913 8.92969 5.29598 9.38906 5.90067 9.84844C5.79755 10.35 5.65223 10.8422 5.60536 11.3578C5.52098 12.2953 5.61005 13.2094 5.87723 14.1094C5.89598 14.1469 5.90067 14.1937 5.90536 14.2406Z" fill="#FABB06"/>
</g>
<defs>
<clipPath id="clip0_244_19643">
<rect width="24" height="24" fill="white"/>
</clipPath>
</defs>
</svg>
